# xmcd
#
# Track frame offsets:
#	150
#	16281
#	33353
#	50282
#	70029
#	84138
#	98041
#	117027
#	132000
#	149257
#	166282
#	182144
#	197909
#
# Disc length: 2896 seconds
#
# Revision: 1
# Processed by: cddbd v1.5.2PL0 Copyright (c) Steve Scherf et al.
# Submitted via: audiograbber 1.83.01
#
DISCID=a00b4e0d
DTITLE=ElvisBlue - Journey
DYEAR=2012
DGENRE=Easy Listening
TTITLE0=Glory Road
TTITLE1=Lifeline
TTITLE2=That's what we do
TTITLE3=Anchor
TTITLE4=Not gonna say goodbye
TTITLE5=Be more
TTITLE6=Journey
TTITLE7=All you need to know
TTITLE8=Come alive
TTITLE9=Closer
TTITLE10=Be the one
TTITLE11=Never give up on you
TTITLE12=Home
EXTD=
EXTT0=
EXTT1=
EXTT2=
EXTT3=
EXTT4=
EXTT5=
EXTT6=
EXTT7=
EXTT8=
EXTT9=
EXTT10=
EXTT11=
EXTT12=
PLAYORDER=
